# xmcd
#
# Track frame offsets:
#	150
#	9842
#	44320
#	81830
#	103410
#	142285
#	163215
#	170602
#	193655
#	228477
#	251235
#
# Disc length: 3518 seconds
#
# Revision: 0
# Processed by: cddbd v1.5.1PL2 Copyright (c) Steve Scherf et al.
# Submitted via: dBpowerAMP V4.0
#
DISCID=9c0dbc0b
DTITLE=Al Matlock - A Song of Praise
DYEAR=1900
DGENRE=
TTITLE0=Interview
TTITLE1=A Song of Praise
TTITLE2=Greater is He
TTITLE3=Use Me Lord
TTITLE4=Never Turn Around
TTITLE5=Lord I Confess
TTITLE6=Kids Talk
TTITLE7=Jesus Jam
TTITLE8=Hallelujah (Praise Your Name)
TTITLE9=I Love You (Wedding Song)
TTITLE10=Use Me Lord (My Prayer)
EXTD=
EXTT0=
EXTT1=
EXTT2=
EXTT3=
EXTT4=
EXTT5=
EXTT6=
EXTT7=
EXTT8=
EXTT9=
EXTT10=
PLAYORDER=
